<svg width="12" height="12" viewBox="0 0 12 12" fill="none" xmlns="http://www.w3.org/2000/svg">
<path d="M10.8468 5.7C10.8414 5.69417 10.8358 5.68844 10.8299 5.68282L6.71932 1.71194C6.59793 1.59468 6.59811 1.40473 6.71971 1.28768C6.84132 1.17063 7.0383 1.1708 7.15969 1.28806L11.2703 5.25891C11.4572 5.43947 11.5618 5.66929 11.5841 5.90498C11.5944 5.93484 11.6 5.96679 11.6 6C11.6 6.033 11.5945 6.06475 11.5843 6.09444C11.5624 6.3312 11.4575 6.56215 11.2696 6.74333L7.15333 10.7121C7.03183 10.8293 6.83485 10.8293 6.71336 10.7121C6.59187 10.595 6.59188 10.405 6.71338 10.2879L10.8297 6.31902C10.8361 6.31281 10.8423 6.30647 10.8483 6.3H0.711136C0.539314 6.3 0.400024 6.16569 0.400024 6C0.400024 5.83432 0.539314 5.7 0.711136 5.7H10.8468Z" fill="white" stroke="white" stroke-width="0.8"/>
</svg>
