<svg width="26" height="22" viewBox="0 0 26 22" fill="none" xmlns="http://www.w3.org/2000/svg">
<path d="M18.8333 13.1667C18.5111 13.1667 18.25 12.9055 18.25 12.5834C18.25 12.2612 18.5111 12 18.8333 12C20.4409 12 22.0484 12.1303 23.6554 12.3909C24.549 12.5358 25.2782 13.1845 25.5261 14.0553L25.8888 15.3292C25.9018 15.3748 25.9133 15.4208 25.9235 15.4671C26.1942 16.6986 25.3918 17.91 24.1729 18.2403C23.0018 18.5577 21.678 18.7995 20.6203 18.9162C20.3001 18.9516 20.0118 18.7206 19.9765 18.4004C19.9411 18.0802 20.1721 17.7919 20.4923 17.7566C21.4925 17.6462 22.7574 17.4152 23.8677 17.1143C24.5048 16.9416 24.9165 16.3201 24.7841 15.7176C24.779 15.6945 24.7732 15.6715 24.7667 15.6487L24.404 14.3747C24.2801 13.9393 23.9155 13.615 23.4686 13.5425C21.9232 13.292 20.3782 13.1667 18.8333 13.1667ZM16.5 7.33337C16.5 8.61999 17.5459 9.66671 18.8333 9.66671C20.1199 9.66671 21.1666 8.62081 21.1666 7.33337C21.1666 6.04675 20.1207 5.00004 18.8333 5.00004C17.5467 5.00004 16.5 6.04594 16.5 7.33337ZM15.3333 7.33337C15.3333 5.40141 16.9025 3.83337 18.8333 3.83337C20.7653 3.83337 22.3333 5.40262 22.3333 7.33337C22.3333 9.26534 20.764 10.8334 18.8333 10.8334C16.9013 10.8334 15.3333 9.26412 15.3333 7.33337ZM9.49996 20.1667C12.8352 20.1667 15.2551 19.8549 16.738 19.2489C17.2554 19.0375 17.5502 18.4889 17.4409 17.9407L16.9873 15.6671C16.7333 14.3937 15.668 13.4416 14.3741 13.3316C13.0836 13.2218 11.4582 13.1667 9.49996 13.1667C7.54171 13.1667 5.91632 13.2218 4.62579 13.3316C3.33195 13.4416 2.26667 14.3937 2.01264 15.6671L1.55908 17.9407C1.44973 18.4889 1.7445 19.0375 2.2619 19.2489C3.7448 19.8549 6.16474 20.1667 9.49996 20.1667ZM9.49996 21.3334C6.02636 21.3334 3.47382 21.0045 1.8206 20.3289C0.785791 19.9061 0.196257 18.8087 0.414954 17.7125L0.868514 15.4389C1.22417 13.6561 2.71555 12.3232 4.52693 12.1691C5.85419 12.0562 7.5112 12 9.49996 12C11.4887 12 13.1457 12.0562 14.473 12.1691C16.2844 12.3232 17.7758 13.6561 18.1314 15.4389L18.585 17.7125C18.8037 18.8087 18.2141 19.9061 17.1793 20.3289C15.5261 21.0045 12.9736 21.3334 9.49996 21.3334ZM5.99996 5.00004C5.99996 6.93014 7.56865 8.50004 9.49996 8.50004C11.4301 8.50004 13 6.93135 13 5.00004C13 3.06995 11.4313 1.50004 9.49996 1.50004C7.56987 1.50004 5.99996 3.06873 5.99996 5.00004ZM4.8333 5.00004C4.8333 2.42419 6.92574 0.333374 9.49996 0.333374C12.0758 0.333374 14.1666 2.42582 14.1666 5.00004C14.1666 7.57589 12.0742 9.66671 9.49996 9.66671C6.92412 9.66671 4.8333 7.57427 4.8333 5.00004Z" fill="#A4A8BB"/>
</svg>
