<svg width="28" height="26" viewBox="0 0 28 26" xmlns="http://www.w3.org/2000/svg">
<path d="M25.7784 12.35C25.7669 12.3372 25.7551 12.3247 25.7428 12.3125L21.0519 7.60901C20.7984 7.35483 20.799 6.94327 21.0532 6.68977C21.3073 6.43626 21.7189 6.43681 21.9724 6.69099L26.6633 11.3944C27.5499 12.2834 27.5487 13.7225 26.6608 14.61L21.9588 19.3097C21.7049 19.5635 21.2934 19.5634 21.0396 19.3095C20.7858 19.0556 20.7859 18.6441 21.0398 18.3903L25.7417 13.6906C25.755 13.6773 25.7678 13.6638 25.7801 13.65H9.79932C9.44033 13.65 9.14932 13.359 9.14932 13C9.14932 12.641 9.44033 12.35 9.79932 12.35H25.7784ZM16.9471 18.8561C16.9673 18.4977 17.2743 18.2236 17.6327 18.2438C17.9911 18.264 18.2653 18.571 18.245 18.9294C18.2232 19.3154 18.1505 20.2236 18.0263 21.6638C17.8366 23.8617 16.0853 25.6066 13.8725 25.807C12.4507 25.9357 10.9036 26 9.23078 26C7.52459 26 5.94912 25.9331 4.50403 25.7992C2.29169 25.5941 0.54414 23.8455 0.359253 21.6472C0.152507 19.189 0.0493164 16.321 0.0493164 13.0421C0.0493164 9.71763 0.155394 6.8021 0.36791 4.29444C0.557067 2.06246 2.35528 0.300516 4.60541 0.137619C5.87432 0.0457569 7.4156 0 9.23078 0C11.0072 0 12.5212 0.0438227 13.7743 0.131786C16.0261 0.289851 17.8288 2.04975 18.0214 4.28275C18.15 5.77494 18.2255 6.7204 18.2483 7.12889C18.2683 7.48732 17.994 7.79412 17.6356 7.81415C17.2772 7.83419 16.9704 7.55987 16.9503 7.20144C16.9285 6.81115 16.8536 5.87223 16.7262 4.39442C16.5888 2.80124 15.2989 1.54201 13.6833 1.4286C12.4635 1.34297 10.9789 1.3 9.23078 1.3C7.44473 1.3 5.93373 1.34486 4.69928 1.43423C3.08485 1.5511 1.79822 2.81178 1.66327 4.40422C1.45409 6.8725 1.34932 9.75212 1.34932 13.0421C1.34932 16.2868 1.45123 19.1192 1.65468 21.5382C1.78658 23.1066 3.03685 24.3576 4.62403 24.5047C6.02746 24.6348 7.56315 24.7 9.23078 24.7C10.8659 24.7 12.3742 24.6373 13.7553 24.5123C15.3428 24.3685 16.5958 23.1201 16.7311 21.552C16.8541 20.1261 16.9263 19.2242 16.9471 18.8561Z" fill="#A4A8BB"/>
</svg>
