<svg width="26" height="26" viewBox="0 0 26 26" fill="none" xmlns="http://www.w3.org/2000/svg">
<path d="M5.0592 21.8573C4.99617 22.1732 4.68895 22.3783 4.37301 22.3152C4.05707 22.2522 3.85205 21.945 3.91508 21.6291L4.36863 19.3555C4.72429 17.5727 6.21568 16.2397 8.02705 16.0857C9.35431 15.9728 11.0113 15.9166 13.0001 15.9166C14.9888 15.9166 16.6459 15.9728 17.9731 16.0857C19.7845 16.2397 21.2759 17.5727 21.6315 19.3555L22.0851 21.6291C22.1481 21.945 21.9431 22.2522 21.6272 22.3152C21.3112 22.3783 21.004 22.1732 20.941 21.8573L20.4874 19.5837C20.2334 18.3103 19.1681 17.3582 17.8743 17.2482C16.5837 17.1384 14.9583 17.0833 13.0001 17.0833C11.0418 17.0833 9.41644 17.1384 8.12591 17.2482C6.83207 17.3582 5.76679 18.3103 5.51276 19.5837L5.0592 21.8573ZM9.50008 9.49996C9.50008 11.4301 11.0688 13 13.0001 13C14.9302 13 16.5001 11.4313 16.5001 9.49996C16.5001 7.56986 14.9314 5.99996 13.0001 5.99996C11.07 5.99996 9.50008 7.56865 9.50008 9.49996ZM8.33342 9.49996C8.33342 6.92411 10.4259 4.83329 13.0001 4.83329C15.5759 4.83329 17.6668 6.92573 17.6668 9.49996C17.6668 12.0758 15.5743 14.1666 13.0001 14.1666C10.4242 14.1666 8.33342 12.0742 8.33342 9.49996ZM1.33342 13C1.33342 19.4442 6.55624 24.6666 13.0001 24.6666C19.4444 24.6666 24.6668 19.4438 24.6668 13C24.6668 6.55567 19.4439 1.33329 13.0001 1.33329C6.5558 1.33329 1.33342 6.55611 1.33342 13ZM0.166748 13C0.166748 5.9118 5.91144 0.166626 13.0001 0.166626C20.0882 0.166626 25.8334 5.91132 25.8334 13C25.8334 20.0881 20.0887 25.8333 13.0001 25.8333C5.91193 25.8333 0.166748 20.0886 0.166748 13Z" fill="white"/>
</svg>
